<svg width="97" height="30" viewBox="0 0 97 30" fill="none" xmlns="http://www.w3.org/2000/svg">
<path d="M94.4325 9.46826V9.72817H93.6904V11.6569H93.3908V9.72817H92.6487V9.46826H94.4325Z" fill="#393A3C"/>
<path d="M94.8063 9.46826H95.2323L95.8645 11.3177L96.4912 9.46826H96.9062V11.6569H96.6313V10.3656C96.6313 10.3191 96.6313 10.2452 96.6313 10.144C96.6313 10.0428 96.6313 9.92788 96.6313 9.81024L96.0102 11.6569H95.7133L95.0811 9.81024V9.87863C95.0811 9.93061 95.0811 10.0127 95.0811 10.1221C95.0811 10.2316 95.0811 10.3136 95.0811 10.3656V11.6569H94.8063V9.46826Z" fill="#393A3C"/>
<path d="M52.4721 15.8208C52.4721 17.4623 51.4304 18.2666 49.74 18.2666C48.0496 18.2666 47.0079 17.4459 47.0079 15.8208V9.46826H44.6826V16.1163C44.6826 18.9123 46.755 20.3787 49.7483 20.3787C52.7415 20.3787 54.8139 18.9123 54.8139 16.1163V9.46826H52.4804L52.4721 15.8208Z" fill="#393A3C"/>
<path d="M63.2302 9.46826H57.0514V20.3951H59.4344V16.7072H63.244C65.9431 16.7072 67.463 15.2408 67.463 13.1014C67.463 10.962 65.9431 9.46826 63.2302 9.46826ZM63.1533 14.6499H59.4207V11.5584H63.1533C64.3297 11.5584 65.0773 12.1658 65.0773 13.0877C65.0663 14.0535 64.3132 14.6471 63.1533 14.6471V14.6499Z" fill="#393A3C"/>
<path d="M71.4541 13.7392V11.5423H78.2843V9.46582H69.071V20.3817H78.364V18.3736V18.245H73.3506H71.4541V15.8758H77.2563V13.7392H71.4541Z" fill="#393A3C"/>
<path d="M86.9474 16.3762H87.1343C89.7812 16.3762 91.1775 14.9426 91.1775 12.9455C91.1775 10.8252 89.751 9.46826 87.0546 9.46826H80.5048V20.3841H82.8878V15.829L83.6876 16.5458L87.9644 20.3759H91.1995L86.7358 16.3762H86.9474ZM82.8878 14.5815V11.5557H86.788C87.9947 11.5557 88.7945 12.1466 88.7945 13.0522C88.7945 14.0042 87.9699 14.5815 86.788 14.5815H82.8878Z" fill="#393A3C"/>
<path d="M36.0299 18.256L41.9201 9.46582H33.1961L31.8163 11.5423L37.635 11.5314L31.8163 20.3735L42.2032 20.3899L43.627 18.2423L36.0299 18.256Z" fill="#393A3C"/>
<path d="M20.2225 9.47119L15.1788 17.0986H19.244H20.4781H24.546L29.5924 9.47119H20.2225Z" fill="#FD5000"/>
<path d="M13.2825 0.754883L7.51868 9.47118H20.2226L25.9892 0.754883H13.2825Z" fill="#FD5000"/>
<path d="M5.3174 12.7817L0.270996 20.4092H9.64092L14.6873 12.7817H5.3174Z" fill="#393A3C"/>
<path d="M9.64105 20.4087L3.87451 29.125H16.5812L22.3478 20.4087H9.64105Z" fill="#393A3C"/>
</svg>
