<svg width="158" height="52" viewBox="0 0 158 52" fill="none" xmlns="http://www.w3.org/2000/svg">
<g id="zuper-logo">
<path id="Vector" d="M153.772 16.9673V17.3932H152.561V20.5535H152.071V17.3932H150.859V16.9673H153.772Z" fill="white"/>
<path id="Vector_2" d="M154.383 16.9673H155.079L156.111 19.9976L157.134 16.9673H157.812V20.5535H157.363V18.4376C157.363 18.3614 157.363 18.2404 157.363 18.0745C157.363 17.9087 157.363 17.7204 157.363 17.5276L156.349 20.5535H155.864L154.832 17.5276V17.6397C154.832 17.7249 154.832 17.8594 154.832 18.0387C154.832 18.218 154.832 18.3525 154.832 18.4376V20.5535H154.383V16.9673Z" fill="white"/>
<path id="Vector_3" d="M85.2482 27.3763C85.2482 30.0659 83.547 31.3838 80.7865 31.3838C78.026 31.3838 76.3248 30.039 76.3248 27.3763V16.9673H72.5274V27.8604C72.5274 32.4418 75.9118 34.8445 80.8 34.8445C85.6881 34.8445 89.0725 32.4418 89.0725 27.8604V16.9673H85.2617L85.2482 27.3763Z" fill="white"/>
<path id="Vector_4" d="M102.817 16.9673H92.7266V34.8714H96.6182V28.8287H102.839C107.247 28.8287 109.73 26.4259 109.73 22.9204C109.73 19.4149 107.247 16.9673 102.817 16.9673ZM102.691 25.4576H96.5958V20.3921H102.691C104.612 20.3921 105.833 21.3873 105.833 22.898C105.815 24.4804 104.586 25.4531 102.691 25.4531V25.4576Z" fill="white"/>
<path id="Vector_5" d="M116.247 23.9648V20.3652H127.401V16.9628H112.355V34.849H127.531V31.5586V31.3479H119.344H116.247V27.4659H125.722V23.9648H116.247Z" fill="white"/>
<path id="Vector_6" d="M141.549 28.2863H141.854C146.176 28.2863 148.457 25.9373 148.457 22.6649C148.457 19.1907 146.127 16.9673 141.724 16.9673H131.027V34.8535H134.919V27.3897L136.225 28.5642L143.209 34.84H148.493L141.203 28.2863H141.549ZM134.919 25.3456V20.3876H141.288C143.259 20.3876 144.565 21.3559 144.565 22.8397C144.565 24.3997 143.218 25.3456 141.288 25.3456H134.919Z" fill="white"/>
<path id="Vector_7" d="M58.3967 31.366L68.0159 16.9629H53.7689L51.5156 20.3653L61.0181 20.3474L51.5156 34.8356L68.4782 34.8626L70.8033 31.3436L58.3967 31.366Z" fill="white"/>
<path id="Vector_8" d="M32.5824 16.9717L24.3457 29.4696H30.9844H32.9998H39.643L47.8841 16.9717H32.5824Z" fill="#FD5000"/>
<path id="Vector_9" d="M21.2486 2.68945L11.8359 16.9715H32.5824L41.9996 2.68945H21.2486Z" fill="#FD5000"/>
<path id="Vector_10" d="M8.24114 22.3959L0 34.8938H15.3018L23.5429 22.3959H8.24114Z" fill="white"/>
<path id="Vector_11" d="M15.3019 34.8939L5.88477 49.1759H26.6357L36.0529 34.8939H15.3019Z" fill="white"/>
</g>
</svg>
